<svg width="689.81995" height="572.25773" xmlns="http://www.w3.org/2000/svg" data-name="Layer 1">

 <g>
  <title>background</title>
  <rect fill="none" id="canvas_background" height="574.25773" width="691.81995" y="-1" x="-1"/>
 </g>
 <g>
  <title>Layer 1</title>
  <path stroke="null" id="svg_1" fill="#3f3d56" d="m676.094893,255.75c-11.932659,96.32 -74.283311,181.71 -154.101771,237.23q-9.716533,6.765 -19.914505,12.98c-0.852333,0.52 -1.704666,1.04 -2.556998,1.55c-47.429814,28.38 -101.768537,46.56 -156.357946,40.89c-44.351388,-4.6 -87.90058,-28.13 -113.891717,-63.28c-0.491345,-0.66 -0.98269,-1.34 -1.45398,-2.01a121.761336,121.42808 0 0 1 -21.017524,-49.22c-4.672789,-26.29 -1.042854,-55.36 -15.562594,-77.79c-18.831541,-29.1 -21.318348,-27.76 -93.86691,-32.75c-72.548563,-4.99 -233.288502,-79.49 -97.226104,6.33c-0.661812,0.04 -1.33365,0.07 -2.005489,0.11l0,-309.1a22.779717,22.71737 0 0 1 22.752272,-22.69l141.11623,0l363.274267,0c1.945324,0.64 3.870594,1.31 5.795863,2a215.346816,214.75742 0 0 1 24.266417,10.44c86.797561,43.89 132.683148,148.99 120.750489,245.31z"/>
  <path id="svg_2" fill="#6c63ff" d="m567.39,129.14c-40.29,37.5 -93.66,61.56 -148.48,67.33q-8.06991,0.855 -16.18,1.17c-1.19995,0.05 -2.4,0.08 -3.61,0.11c-1.96,0.05 -3.93,0.07 -5.89,0.07q-3.525,0 -7.05,-0.1a255.88354,255.88354 0 0 1 -40.52,-4.43c-0.49,-0.1 -0.97,-0.19 -1.46,-0.29q-3.165,-0.615 -6.31,-1.32q-6.03,-1.335 -12,-2.96c-1.29,-0.35 -2.58,-0.71 -3.87,-1.09c-1.85,-0.53 -3.69,-1.09 -5.53,-1.66c-0.69,-0.22 -1.38,-0.43 -2.07,-0.66q-1.05,-0.33 -2.1,-0.69q-6.405,-2.1 -12.7,-4.56a255.24182,255.24182 0 0 1 -66.37,-37.91c-2.78,-2.21 -5.6,-4.53 -8.32,-6.78c-14.62,-12.06 -29.74,-24.53 -48.17,-27.25c-19.9,-2.93 -39.02,6.13 -57.5,14.89c-6.27,2.97 -12.75,6.04 -19.16,8.61a152.67089,152.67089 0 0 1 -98.1,4.69c-0.67,-0.18 -1.34,-0.38 -2,-0.58l0,-2.09c0.66,0.2 1.33,0.4 2,0.59a150.75325,150.75325 0 0 0 97.36,-4.47c6.35,-2.54 12.81,-5.6 19.05,-8.56c18.75,-8.89 38.14,-18.08 58.64,-15.06c18.98,2.8 34.32,15.45 49.15,27.69c2.72,2.24 5.53,4.56 8.29,6.76a253.09188,253.09188 0 0 0 65.94,37.65l0.01,0c4.02,1.56 8.09,3.03 12.18,4.39c0.59,0.19 1.18,0.38 1.77,0.58c0.66,0.21 1.33,0.42 1.99,0.63q2.535,0.81 5.08,1.54q2.49,0.75 5.01,1.42l0.01,0q6.45008,1.755 12.98,3.17c1.97,0.44 3.94,0.84 5.93,1.22c0.43,0.09 0.87,0.17 1.31,0.25a252.999,252.999 0 0 0 38.86,4.26l0.01,0q6.795,0.20994 13.57,0.05c1.18,-0.03 2.35,-0.07 3.52,-0.11q7.66508,-0.3 15.31,-1.08l0.01,0c54.65,-5.59 107.89,-29.51 148.05005,-66.89a1.00132,1.00132 0 0 1 1.36,1.47l-0.00005,0z"/>
  <path id="svg_3" fill="#ff6584" d="m0.31,90.94a2.30973,2.30973 0 0 1 -0.31,0.72l0,-2.79a2.819,2.819 0 0 1 0.31,2.07z"/>
  <ellipse id="svg_4" fill="#e6e6e6" transform="rotate(-83.62432861328125 -264.64556884765614,332.09820556640636) " ry="2.27591" rx="3.27161" cy="575.377466" cx="-5.206619"/>
  <ellipse id="svg_5" fill="#3f3d56" transform="rotate(-83.62432861328125 -283.2483520507812,353.7166748046875) " ry="2.27591" rx="3.27161" cy="618.203775" cx="-21.026482"/>
  <ellipse id="svg_6" fill="#fff" transform="rotate(-75.7793197631836 -104.48422241210902,914.6788330078127) " ry="5.17661" rx="3.60114" cy="1347.273013" cx="648.958278"/>
  <ellipse id="svg_7" fill="#3f3d56" transform="rotate(-75.7793197631836 -129.80244445800741,881.7077026367191) " ry="5.17661" rx="3.60114" cy="1314.083723" cx="589.796426"/>
  <ellipse id="svg_8" fill="#ff6584" transform="rotate(-75.7793197631836 -126.91143798828108,942.0159912109376) " ry="5.17661" rx="3.60114" cy="1402.688621" cx="632.882052"/>
  <ellipse id="svg_9" fill="#e6e6e6" transform="rotate(-83.62432861328125 -37.9742393493651,1043.5079345703127) " ry="2.27591" rx="3.27161" cy="1515.787195" cx="732.464711"/>
  <ellipse id="svg_10" fill="#3f3d56" transform="rotate(-83.62432861328125 -56.57703018188478,1065.12646484375) " ry="2.27591" rx="3.27161" cy="1558.613565" cx="716.64484"/>
  <ellipse id="svg_11" fill="#e6e6e6" transform="rotate(-83.62432861328125 -47.169090270996136,994.8123168945311) " ry="2.27591" rx="3.27161" cy="1447.883487" cx="691.45249"/>
  <ellipse id="svg_12" fill="#ff6584" transform="rotate(-83.62432861328125 -25.669830322265614,1006.05078125) " ry="2.27591" rx="3.27161" cy="1452.723501" cx="729.98346"/>
  <ellipse id="svg_13" fill="#3f3d56" transform="rotate(-83.62432861328125 -27.142520904540966,969.8313598632812) " ry="2.27591" rx="3.27161" cy="1399.21757" cx="707.528459"/>
  <ellipse id="svg_14" fill="#fff" transform="rotate(-75.7793197631836 -217.97261047363278,294.84228515625) " ry="5.17661" rx="3.60114" cy="490.436465" cx="80.46989"/>
  <ellipse id="svg_15" fill="#3f3d56" transform="rotate(-75.7793197631836 -243.29083251953128,261.8711853027344) " ry="5.17661" rx="3.60114" cy="457.247205" cx="21.308037"/>
  <ellipse id="svg_16" fill="#ff6584" transform="rotate(-75.7793197631836 -240.3998260498046,322.17944335937506) " ry="5.17661" rx="3.60114" cy="545.852073" cx="64.393664"/>
  <ellipse id="svg_17" fill="#e6e6e6" transform="rotate(-83.62432861328125 -206.91368103027335,380.6402282714843) " ry="2.27591" rx="3.27161" cy="615.919488" cx="108.525269"/>
  <ellipse id="svg_18" fill="#3f3d56" transform="rotate(-83.62432861328125 -225.51646423339844,402.2586975097656) " ry="2.27591" rx="3.27161" cy="658.745798" cx="92.705406"/>
  <ellipse id="svg_19" fill="#e6e6e6" transform="rotate(-83.62432861328125 -216.10853576660153,331.9445495605469) " ry="2.27591" rx="3.27161" cy="548.01572" cx="67.513044"/>
  <ellipse id="svg_20" fill="#ff6584" transform="rotate(-83.62432861328125 -194.60926818847653,343.1830139160156) " ry="2.27591" rx="3.27161" cy="552.855734" cx="106.044022"/>
  <ellipse id="svg_21" fill="#3f3d56" transform="rotate(-83.62432861328125 -196.0819549560547,306.96356201171875) " ry="2.27591" rx="3.27161" cy="499.349772" cx="83.589025"/>
  <circle id="svg_22" fill="#fff" r="4" cy="194.09532" cx="158.3728"/>
  <circle id="svg_23" fill="#fff" r="2" cy="234.09532" cx="60.3728"/>
  <circle id="svg_24" fill="#fff" r="2" cy="383.09532" cx="457.3728"/>
  <circle id="svg_25" fill="#fff" r="2" cy="291.09532" cx="199.3728"/>
  <circle id="svg_26" fill="#fff" r="2" cy="82.09532" cx="235.3728"/>
  <circle id="svg_27" fill="#fff" r="2" cy="159.09532" cx="562.3728"/>
  <circle id="svg_28" fill="#fff" r="2" cy="55.09532" cx="97.3728"/>
  <circle id="svg_29" fill="#fff" r="4" cy="43.09532" cx="461.3728"/>
  <path id="svg_30" fill="#e6e6e6" d="m640.37,574.6l-2,0c0,-11.54 -10.81,-22.83 -32.14,-33.56c-20.87,-10.5 -50.79,-19.94 -88.91,-28.05q-8.46,-1.8 -17.31,-3.48c-30.52,-5.8 -64.43,-10.55 -100.75,-14.16q-11.265,-1.125 -22.85,-2.09c-2.5,-0.22 -5.02,-0.42 -7.55,-0.63q-10.545,-0.82506 -21.31,-1.54c-37.46,-2.48 -76.79,-3.83 -117.05,-3.97c-2.37,-0.02 -4.75,-0.02 -7.13,-0.02c-52.43,0 -64.27,4.95 -64.97,9.11c-1.79,10.52 58.85,31.65 117.49,52.1c64.91,22.62 131.62,45.88 154.34,65.69c0.77,0.67 1.49,1.34 2.16,2l-2.75,0c-0.73,-0.66 -1.52,-1.33 -2.36,-2c-23.99,-19.16 -91.28,-42.62 -152.05,-63.81c-74.94,-26.12 -120.77,-42.72 -118.81,-54.32c0.85,-5.02 9.23,-10.77 66.95,-10.77c1.89,0 3.79,0 5.68,0.01c40.25,0.11 79.58,1.43 117.08,3.89q10.995,0.705 21.77,1.56c2.67,0.21 5.33,0.42 7.98,0.65q11.88,0.99006 23.45,2.14c37.28,3.7 72.05,8.6 103.23,14.61q7.74,1.5 15.18,3.08c79.08,16.82 122.63,39.39 122.63,63.56z"/>
  <path id="svg_31" fill="#e6e6e6" d="m609.3728,569.77891l-2,0c0,-8.54 -34.88818,-17.68359 -86.8247,-17.68359c-51.936,0 -86.82422,9.14355 -86.82422,17.68359l-2,0c0,-12.32129 45.16211,-19.68359 88.82422,-19.68359s88.8247,7.3623 88.8247,19.68359z"/>
  <path id="svg_32" fill="#e6e6e6" d="m574.47583,575.59532l-2,0c0,-4.82324 -21.20654,-10.19824 -51.63672,-10.19824s-51.63672,5.375 -51.63672,10.19824l-2,0c0,-7.92285 27.63477,-12.19824 53.63672,-12.19824s53.63672,4.27539 53.63672,12.19824z"/>
  <circle id="svg_33" fill="#f2f2f2" r="40" cy="94.09532" cx="360.3728"/>
  <circle id="svg_34" fill="#f2f2f2" r="40" cy="97.09532" cx="354.3728"/>
  <path id="svg_35" fill="#f2f2f2" d="m398.3722,535.04048l-37.4922,-0.00143l0,-0.47405a14.59383,14.59383 0 0 1 14.593,-14.5928l0.00091,0l6.84841,-5.19554l12.77768,5.19634l3.27284,0.00007l-0.00064,15.06741z"/>
  <path id="svg_36" fill="#f2f2f2" d="m380.91905,514.791l-32.03268,19.48267l-0.24638,-0.40506a14.59381,14.59381 0 0 1 4.88417,-20.0512l0.00077,-0.00047l3.151,-7.99784l13.61718,-2.20069l2.79623,-1.70076l7.82971,12.87335z"/>
  <path id="svg_37" fill="#f2f2f2" d="m402.94281,408.56529c-0.17,1.19995 -0.42,5.28 -0.71,11.22c-1.41,28.80005 -3.86,101.31006 -3.86,101.31006l-15.27,-4.75s-18.16,-54.78 -15.16,-84.78l-2.16,-10.43994l-3.7,-17.84009l0,-0.01l-11.27,-54.33s-2.47,14.7201 -2.67,18.17005s-2.2,4.45 -3.2,4.45c-5.01,0 -3.47,-0.89 -2.74,4.06006c0.53,3.55993 -3.81,23.97 -6.29,35.12988c-0.96,4.34009 -1.64,7.28 -1.64,7.28l4.24,9.14l35.15,75.80005l-13.29,7.12l-53.02,-78.58008l-5.23,-7.75l-1.12,-8.68994l-8.82,-68.37s-2.75,-7.73 0,-7.93c2.76,-0.21 4.32,0.66 3.54,-2.27c-0.78,-2.93994 15.22,-51.93994 15.22,-51.93994l83,18s8.18,16.26 5,24c-3.19,7.74 2.61,67.67993 -0.7,70.34009c-3.3,2.65991 -5.43,0.5299 -0.87,5.09985a8.38635,8.38635 0 0 0 2.43,1.76c2.81999,1.27993 3.93999,-0.80003 3.14,4.79995z"/>
  <circle id="svg_38" fill="#a0616a" r="23.0557" cy="98.95991" cx="354.11277"/>
  <path id="svg_39" fill="#3f3d56" d="m372.07956,118.81621l-9.14,1.75s8.5,-13.72 8,-20c-0.5,-6.28 -7.34,-8.53 -7.34,-8.53s-3.79,0.82 -7.78,1.28a20.0611,20.0611 0 0 0 -1.85,-3.85a6.71583,6.71583 0 0 1 -1.96,4.14a10.93526,10.93526 0 0 1 -4.33,-0.5c-1.58,-0.72 -1.55,-1.97 -1.03,-3.14a41.62375,41.62375 0 0 0 -14.82,4.07a40.8988,40.8988 0 0 1 0.35,-9.2c0.22,-0.06 0.44,-0.12994 0.66,-0.2a20.41435,20.41435 0 0 0 3.92,-1.71a6.75155,6.75155 0 0 1 -3.7,-1.74c0.84,-2.46 2.18,-4.59 4.29,-5.63a15.81547,15.81547 0 0 1 13.13,-0.35s-4.88995,-3.57 -3.09,-5.03c0.12,0.12 0.24,0.23 0.37,0.34c0.17,0.13995 0.36,0.29 0.54,0.43c1.11,0.9 2.77,-0.37 2.99,-1.73a4.5857,4.5857 0 0 1 0.1,-0.51c0.03,-0.14 0.07,-0.28 0.11,-0.41a3.39441,3.39441 0 0 1 0.12,-0.34c3.33,-0.8 13.4,2.45 17.27,9.61c0,0 27.04998,13 3.19,41.25z"/>
  <path id="svg_40" fill="#6c63ff" d="m363.72778,324.37631a8.93378,8.93378 0 0 1 7.32068,-10.08344a8.57117,8.57117 0 0 1 1.41312,-0.10276l24.107,-55.98179l16.53742,12.41592l-32.19849,53.034a8.909,8.909 0 0 1 -7.366,8.00259a8.52587,8.52587 0 0 1 -9.77952,-7.05282q-0.01866,-0.11563 -0.03421,-0.2317z"/>
  <path id="svg_41" fill="#6c63ff" d="m296.19686,328.93952a8.93377,8.93377 0 0 0 -0.00564,-12.46067a8.57057,8.57057 0 0 0 -1.08356,-0.91287l13.3547,-59.47066l-20.67673,0.34075l-5.07394,61.83525a8.909,8.909 0 0 0 1.264,10.80284a8.52588,8.52588 0 0 0 12.05738,0.03276q0.08305,-0.08257 0.16379,-0.1674z"/>
  <path id="svg_42" fill="#f2f2f2" d="m429.44281,229.3853c-3,4 -7,-0.51 -3,5.25c2.75,3.96 -13.01,41.08 -23.1,63.82c-4.56,10.28992 -7.97,17.64 -7.97,17.64l-17.01,-9.8501l-1.99,-1.1499s15.6,-39.26 20.62,-53.37c0.83,-2.34 1.38,-3.99 1.51,-4.65c0.94,-4.69 1.06,-8.71 0,-10.2a13.90473,13.90473 0 0 1 -0.64,-1.71c-2.01,-5.89 -8.13,-25.78 -13.86,-44.59c-1.67,-5.52 -3.32,-10.94 -4.82,-15.89c-3.85,-12.71 -6.74,-22.3 -6.74,-22.3l23,1s0.38,0.64 1.05,1.8c1.6,2.76 4.88,8.45 8.68,15.29c2.74,4.92 5.76,10.45 8.61005,15.89c7.26,13.84 13.51,27.17 11.66,29.02c-4,4 -8.09,1.73 -3.05,6.86c5.04995,5.14 10.04995,3.14 7.04995,7.14z"/>
  <path id="svg_43" fill="#f2f2f2" d="m401.93958,282.56626c-6,-5.94006 -4.89,-33.01007 -4.89,-33.01007s5.97,-90.9 -2.11,-96.99a112.67431,112.67431 0 0 0 -17.76,-10.49c-0.36,-0.16 -0.55,-0.25 -0.55,-0.25l-5.16,-14.55l-31.79,-1.65l-5.55,10.78s-0.87,0.06 -2.23,0.25c-5.08,0.7 -17.02,3.18 -15.96,10.91c1.34,9.8 -8.12,69.99 -11,73s-2.12,14.01 5,21s2,26 -3,34a27.3848,27.3848 0 0 0 -3.96,16.33991s3.96,21.66015 13.96,14.66015c3.81,-2.67016 9.22,-3.01 15.73,-2.52c0.06347,0.00463 0.13226,0.01293 0.196,0.01782l-0.196,0.98218c9.04,0.66992 20.21,2.93994 32.16,2.80993l-0.35388,-1.00452c0.11883,-0.00073 0.23486,0.00586 0.35388,0.00452c2.02,-0.02 4.05,-0.11 6.11,-0.28992c17.82,-1.55 25.69,3.34986 28,-2c2.30999,-5.35009 9,-16.06005 3,-22z"/>
  <circle id="svg_44" opacity="0.3" fill="#6c63ff" r="30" cy="97.09532" cx="354.3728"/>
  <path id="svg_45" fill="#f2f2f2" d="m339.94281,142.3853s-4.56,15.14 -9.87,32.61c-1.67,5.5 -3.42,11.23 -5.12,16.80005c-5.55,18.11 -10.61,34.43 -11.08,35.08c-1.06,1.49 -0.93,5.51 0,10.2c0.19,0.94 -0.24,4.6 -1.05,9.85c-1.06,6.89 -2.77,16.51 -4.59,26.33c-1.45,7.85 -2.97,15.82 -4.28,22.61005c-2.05,10.54 -3.58,18.23 -3.58,18.23l-19,0s3.57,-79.71 7.57,-85.46c4,-5.76 0,-1.25 -3,-5.25s2,-2 7.04,-7.14c5.04,-5.13 0.96,-2.86 -3.04,-6.86c-1.48,-1.48 1.83,-10.91 6.59,-22.2c2.22,-5.24 4.75,-10.88995 7.25,-16.32995c5.17,-11.23 10.24,-21.56 12.25,-25.64c0,-0.01 0.01,-0.02 0.01,-0.03l0.9,-1.8l23,-1.00015z"/>
  <path id="svg_46" fill="#3f3d56" d="m381.3728,146.09532c-20.879,8.1098 -39.65112,9.50775 -55,0l0,-18c18.07686,10.84643 36.41721,10.54986 55,0l0,18z"/>
  <path id="svg_47" fill="#3f3d56" d="m397.3728,261.09532c-32.26747,8.1098 -61.279,9.50775 -85,0l0,-18c27.937,10.84643 56.28114,10.54986 85,0l0,18z"/>
  <path id="svg_48" fill="#3f3d56" d="m402.94281,408.56529c-0.17,1.19995 -0.42,5.28 -0.71,11.22a147.5843,147.5843 0 0 1 -36.45,1.34009l-3.7,-17.84009a112.88652,112.88652 0 0 0 37.72,0.48c2.81999,1.27998 3.93999,-0.79998 3.14,4.8z"/>
  <path id="svg_49" fill="#3f3d56" d="m338.51282,427.17527a195.43337,195.43337 0 0 1 -31.16,4.34l-5.23,-7.75l-1.12,-8.68994a118.57174,118.57174 0 0 0 34.91,-4.32007c-0.96,4.34009 -1.64,7.28 -1.64,7.28l4.24,9.14001z"/>
  <path stroke="null" id="svg_56" d="m318.878225,209.332825c0.01259,-1.492323 2.385937,-1.983957 3.360208,-3.01931c3.760839,-2.559651 7.42521,-5.514807 9.730468,-9.548751c2.449041,-4.121635 3.777175,-9.170338 2.780951,-13.951224c-0.52829,-2.966584 -3.371535,-5.340874 -6.379989,-4.969576c-1.981394,0.274905 -4.270123,0.73745 -5.416567,2.592701c-1.24443,0.947887 -0.559779,3.16949 1.099222,2.325719c2.122503,-0.821668 4.788344,0.853829 4.704403,3.228617c0.002461,2.251752 -2.245166,3.840231 -4.339762,3.628872c-2.332972,-0.023657 -4.642421,-1.932701 -4.593659,-4.407559c-0.161685,-3.98879 3.241355,-7.24659 6.883963,-8.082583c3.257077,-1.029278 7.043662,-0.615107 9.790205,1.526064c2.043677,1.416769 3.653054,3.564584 3.988823,6.099724c0.724947,3.296001 -0.211923,6.697491 -1.837128,9.564967c-2.088697,3.862993 -5.280124,7.02543 -8.984803,9.294027c-3.440819,2.225314 -7.019832,4.235051 -10.722313,5.976995c-0.021341,-0.086227 -0.042681,-0.172458 -0.064022,-0.258687l-0.000001,0.000002zm24.718423,-16.263419c-1.771453,-0.813547 -1.380624,-4.119339 0.681296,-4.193689c1.542849,-0.364988 2.983979,1.270372 2.507704,2.782668c-0.300441,1.415181 -1.975684,2.028539 -3.188999,1.411021zm0,-9.043184c-1.771453,-0.813544 -1.380624,-4.119339 0.681296,-4.193688c1.542849,-0.364987 2.983979,1.270373 2.507704,2.782668c-0.308244,1.41998 -1.96706,2.025954 -3.188999,1.41102z" fill-opacity="null" stroke-opacity="null" stroke-width="null" fill="#f99abd"/>
  <path stroke="null" id="svg_57" d="m144.462027,301.504373c-2.518378,-0.446077 -5.139505,-0.739782 -7.26786,-0.819281l-0.375345,-0.01325c0.085973,-0.198747 0.150977,-0.333454 0.171946,-0.353329c0.046132,-0.039749 0.083876,-0.207581 0.08807,-0.370995c0,-0.09054 0.037744,-0.384245 0.096457,-0.772906c0.576648,0.022083 1.342017,0.039749 2.176584,0.046374c3.222937,0.0265 6.594755,0.300329 8.907637,0.730949c1.377664,0.256163 1.832692,0.24733 0.815695,-0.01325c-1.029579,-0.262788 -4.082667,-0.649241 -6.515072,-0.817073c-1.633486,-0.11704 -3.975725,-0.161206 -5.355486,-0.136915c0.039841,-0.251747 0.085973,-0.532201 0.134202,-0.819281c0.195012,-1.110777 0.260016,-2.228179 0.26421,-4.451941c0.004194,-3.449371 -0.171946,-4.398942 -1.239269,-6.68012c-0.434059,-0.931904 -0.924733,-1.722477 -1.518157,-2.437968c0.517935,-1.609854 0.505353,-4.103029 -0.031454,-6.28925c-0.442446,-1.793143 -0.597617,-1.907975 -2.140936,-1.563479c-1.308466,0.293704 -2.356917,0.693408 -3.701031,1.40669c-0.635361,0.337871 -1.511866,0.863447 -2.147227,1.2764c-1.656552,-0.613909 -3.36972,-1.020237 -5.198218,-1.238859c-1.853661,-0.22083 -6.397646,-0.097165 -8.010163,0.216414c-1.57687,0.306954 -2.996472,0.682366 -4.281872,1.128443c-0.641652,-0.417369 -1.572676,-0.980487 -2.237394,-1.333816c-1.350404,-0.715491 -2.398855,-1.112985 -3.711515,-1.40669c-1.539126,-0.346704 -1.69849,-0.229664 -2.138839,1.563479c-0.545194,2.214929 -0.549388,4.750062 -0.010485,6.355499c0.062907,0.183289 0.100651,0.313579 0.11533,0.415161c-2.184971,2.897295 -2.897918,6.139086 -2.424018,10.663901c0.123717,1.179234 0.314535,2.261304 0.580842,3.252832c-1.394439,-0.008833 -3.378108,0.044166 -4.810292,0.141331c-2.436599,0.170039 -5.489688,0.552076 -6.519266,0.814864c-1.0149,0.26058 -0.564066,0.269413 0.815695,0.015458c2.312882,-0.428411 5.686796,-0.706657 8.907637,-0.730949c0.608101,-0.002208 1.176362,-0.015458 1.66494,-0.028708c0.146783,0.523368 0.314535,1.022445 0.505353,1.49723l-0.014678,0.002208c-2.128355,0.077291 -4.747385,0.370995 -7.265763,0.817073c-1.889308,0.333454 -4.678187,1.000362 -5.003206,1.192484c-0.341795,0.200956 -0.062907,0.15679 1.40073,-0.23408c2.669355,-0.711074 6.139727,-1.256525 10.438375,-1.636353l0.48019,-0.044166c0.922637,2.256887 2.344336,3.979364 4.353167,5.322013c1.228784,0.823697 3.197774,1.669478 4.189609,1.801976c0.272597,0.035333 1.065226,0.207581 1.761397,0.379828c0.698268,0.172248 2.063351,0.430619 3.032119,0.578576l0.023066,0c-0.018872,0.01325 -0.035647,0.022083 -0.052423,0.035333c-1.174265,0.642617 -1.937537,1.642978 -2.451278,3.217499c-0.230659,0.072874 -0.517935,0.172248 -0.828276,0.284871c-1.109261,0.397495 -1.541222,0.479202 -2.665162,0.488035c-1.165877,0.008833 -1.442668,-0.044166 -2.138839,-0.388662c-1.012803,-0.496868 -1.956409,-1.411106 -2.585479,-2.502009c-1.050548,-1.824059 -2.866464,-3.113709 -4.380427,-3.113709c-1.293788,0 -1.539126,0.552076 -0.603908,1.358107c1.409118,1.212359 2.461762,2.449009 2.893724,3.394164c0.243241,0.529993 0.616489,1.349274 0.83247,1.819643c0.228562,0.501285 0.71714,1.181443 1.182652,1.651812c1.094582,1.099735 2.151421,1.625312 3.72829,1.872642c1.056838,0.163415 1.316854,0.163415 2.56451,-0.004417c0.601811,-0.077291 1.109261,-0.167831 1.564288,-0.280455c0,0.538826 0,1.15936 0,1.8881c0,3.899865 -0.044035,5.154182 -0.190818,5.520761c-0.276791,0.697824 -0.897474,1.415523 -1.501381,1.737935c-0.601811,0.322412 -0.788435,0.677949 -0.53471,1.004778c0.140492,0.176664 0.410993,0.207581 1.318951,0.145748c1.723653,-0.112624 2.941953,-0.783948 3.562635,-1.967599c0.199206,-0.379828 0.245337,-1.143902 0.308244,-5.118849c0.067101,-4.312818 0.096457,-4.727979 0.362764,-5.344096c0.161461,-0.366578 0.394217,-0.764073 0.524225,-0.87228c0.218078,-0.189914 0.232756,0.185498 0.232756,5.344096c-0.002097,5.693008 -0.056616,6.379791 -0.597617,7.47511c-0.12162,0.249538 -0.352279,0.574159 -0.513741,0.72874c-0.283082,0.271621 -0.402605,0.967237 -0.205496,1.177026c0.32502,0.340079 1.954312,-0.194331 2.843398,-0.931904c1.513963,-1.26315 1.694296,-2.307678 1.706878,-9.851245l0.006291,-4.425442l0.459221,0.046374l0.459221,0.044166l0.075488,5.787965c0.085973,6.516706 0.098554,6.611663 1.151199,7.870396c0.597617,0.711074 1.199428,1.104152 2.17868,1.411106c1.310563,0.415161 1.704781,-0.225247 0.824082,-1.336024c-0.958284,-1.207942 -1.004416,-1.669478 -0.951993,-8.819967c0.035647,-4.58444 0.035647,-4.58444 0.316632,-4.317235c0.591326,0.565326 0.704559,1.492814 0.704559,5.792382c0,5.33968 0.144686,5.84759 1.93544,6.779494c0.836664,0.430619 1.071517,0.483619 2.143033,0.488035c1.140714,0.004417 1.209912,-0.01325 1.25185,-0.326829c0.035647,-0.253955 -0.104845,-0.426203 -0.637458,-0.76849c-0.698268,-0.452702 -1.182652,-1.031278 -1.486703,-1.760018c-0.11533,-0.280455 -0.192915,-2.117764 -0.245337,-5.900589c-0.075488,-5.284472 -0.092264,-5.525177 -0.404702,-6.353291c-0.421477,-1.112985 -1.065226,-1.99189 -1.88092,-2.574883c-0.211787,-0.145748 -0.423574,-0.267205 -0.698268,-0.357745c0.337601,-0.035333 0.664718,-0.072874 0.98135,-0.121457c3.296329,-0.461536 5.038854,-0.845781 6.437487,-1.415523c2.958728,-1.199109 4.959172,-3.191 6.04327,-6.015421c0.096457,-0.251747 0.192915,-0.490244 0.274694,-0.682366l0.834567,0.072874c4.300745,0.382037 7.771116,0.927488 10.440472,1.64077c1.463637,0.39087 1.742525,0.437244 1.40073,0.231872c-0.318729,-0.187706 -3.107608,-0.852405 -4.994819,-1.185859zm-12.610764,-0.068457c-0.488578,1.130652 -1.851564,2.583716 -2.952437,3.153458c-1.086195,0.565326 -2.788879,0.995945 -4.718028,1.201317c-1.318951,0.141331 -8.674881,0.183289 -9.888986,0.057416c-4.01976,-0.415161 -6.271832,-1.230025 -7.932578,-2.861962c-1.572676,-1.55023 -2.306591,-3.654743 -2.17868,-6.245084c0.081779,-1.620895 0.452931,-2.638924 1.423796,-3.875574c0.882795,-1.126235 1.811723,-1.821851 2.906305,-2.17518c0.916346,-0.295913 3.72829,-0.322412 7.509004,-0.066249c1.67123,0.112624 3.053088,0.112624 4.722222,0c3.954756,-0.262788 6.594755,-0.23408 7.569814,0.083916c1.532835,0.499077 2.929371,1.841726 3.768132,3.630452c0.377442,0.799406 0.450834,1.139485 0.505353,2.373927c0.075488,1.700394 -0.203399,3.506787 -0.733915,4.723563zm-19.941531,-7.300654c-2.249975,-0.415161 -3.535376,3.641494 -1.809626,5.712883c0.819888,0.982695 1.547513,1.143902 2.457568,0.547659c0.842954,-0.554284 1.300079,-1.589979 1.300079,-2.932628c0,-1.790935 -0.773757,-3.107084 -1.948021,-3.327914zm13.657118,0.242913c-2.249975,-0.415161 -3.537472,3.637077 -1.811723,5.710675c0.821985,0.982695 1.547513,1.14611 2.459665,0.545451c0.840857,-0.552076 1.300079,-1.589979 1.300079,-2.932628c0,-1.78431 -0.773757,-3.104876 -1.948021,-3.323498zm-6.051657,7.976395c-0.048229,0.163415 -0.283082,0.406328 -0.520032,0.536618c-0.599714,0.324621 -1.031675,0.211997 -1.66494,-0.395286c-0.392121,-0.373203 -0.570357,-0.569742 -0.689881,-0.178873c-0.111136,0.362162 0.587132,1.088694 1.126036,1.311733c0.494869,0.207581 0.849245,0.214206 1.386052,-0.022083c0.532613,-0.23408 0.998125,-0.863447 0.998125,-1.271983c0,-0.379828 -0.517935,-0.362162 -0.635361,0.019875zm-0.664718,-1.269775c0.341795,-0.317996 0.41938,-0.971654 0.092264,-1.318358s-0.991834,-0.293704 -1.25185,0.094957c-0.301954,0.454911 -0.140492,0.801614 0.075488,1.170401c0.335504,0.27383 0.786338,0.329037 1.084098,0.052999z" stroke-opacity="null" stroke-width="null" fill="#ffffff"/>
  <path id="svg_59" d="m4.909973,2.566364" opacity="0.5" fill-opacity="null" stroke-opacity="null" stroke-width="null" stroke="null" fill="#3f3d56"/>
  <path id="svg_60" d="m54.909973,17.566364c0,-1 -27,25 -27,25c0,0 49,-21 49,-21" opacity="0.5" fill-opacity="null" stroke-opacity="null" stroke-width="null" stroke="null" fill="#3f3d56"/>
 </g>
</svg>